<svg width="442" height="444" viewBox="0 0 442 444" fill="none" xmlns="http://www.w3.org/2000/svg">
<path d="M127.101 9.11H12.5506V198.72H127.101V9.11Z" fill="#E0E0E0"/>
<path d="M123.291 9.11H8.74063V198.72H123.291V9.11Z" fill="#EBEBEB"/>
<path d="M118.411 12.95H13.6206V194.87H118.411V12.95Z" fill="white"/>
<path d="M98.0106 36.59H33.5706V171.23H98.0106V36.59Z" fill="#EBEBEB"/>
<path d="M33.5706 123.56C33.4206 110.98 44.7306 98.7 57.1806 96.94C63.1206 96.11 69.4306 97.29 74.9806 95.01C84.8806 90.95 88.0406 77.79 97.9806 73.88L98.4406 171.2H33.5706V123.56Z" fill="#E0E0E0"/>
<path d="M426.661 0.5V104.84H276.801L271.401 1.23L426.661 0.5Z" fill="#E0E0E0"/>
<path d="M271.411 1.23V104.62L421.271 104.62V1.23L271.411 1.23Z" fill="white"/>
<path d="M421.971 105.33H270.691V0.559999H421.971V105.33ZM272.121 103.91H420.551V1.91H272.121V103.91Z" fill="#E0E0E0"/>
<path d="M405.031 14.08H287.631V91.78H405.031V14.08Z" fill="white"/>
<path d="M405.031 14.08H404.451H402.781H396.341L372.141 14.17L287.631 14.34L287.971 14C287.971 37.74 287.971 64 287.971 91.69L287.601 91.32L405.001 91.39L404.711 91.69C404.771 68.04 404.821 48.69 404.861 35.15C404.861 28.41 404.921 23.15 404.941 19.52C404.941 17.74 404.941 16.37 404.941 15.41C404.941 14.48 404.941 13.99 404.941 13.99C404.941 13.99 404.941 14.44 404.941 15.35C404.941 16.26 404.941 17.64 404.941 19.35C404.941 22.95 404.941 28.2 405.011 34.92C405.011 48.46 405.101 67.92 405.171 91.64V91.93H404.871L287.471 92.01H287.101V91.64C287.101 63.99 287.101 37.69 287.101 13.95V13.61H287.431L372.171 13.78L396.281 13.87H402.661H404.291C404.542 13.9218 404.789 13.992 405.031 14.08Z" fill="#E0E0E0"/>
<path d="M271.401 0.939999C272.328 1.3854 273.195 1.94654 273.981 2.61C275.511 3.72 277.601 5.29 279.861 7.09C282.121 8.89 284.091 10.6 285.491 11.88C286.296 12.5176 287.016 13.2571 287.631 14.08C287.501 14.24 283.891 11.26 279.391 7.67C274.891 4.08 271.271 1.11 271.401 0.939999Z" fill="#E0E0E0"/>
<path d="M421.261 1.23C421.391 1.39 417.861 4.4 413.381 7.95C408.901 11.5 405.161 14.24 405.031 14.08C404.901 13.92 408.431 10.91 412.921 7.36C417.411 3.81 421.131 1.07 421.261 1.23Z" fill="#E0E0E0"/>
<path d="M421.141 104.64L404.431 91.09Z" fill="white"/>
<path d="M404.431 91.09C404.561 90.94 408.431 93.84 413.021 97.58C417.611 101.32 421.271 104.48 421.141 104.64C421.011 104.8 417.141 101.89 412.561 98.15C407.981 94.41 404.311 91.25 404.431 91.09Z" fill="#E0E0E0"/>
<path d="M271.401 104.62C271.281 104.46 274.771 101.49 279.211 97.98C283.651 94.47 287.341 91.76 287.471 91.92C287.601 92.08 284.101 95.05 279.671 98.56C275.241 102.07 271.531 104.78 271.401 104.62Z" fill="#E0E0E0"/>
<path d="M311.471 38.28V64.3H385.341V38.28H311.471Z" fill="#E0E0E0"/>
<path d="M199.371 347.14C199.371 342.61 202.841 339.33 207.511 339.33C208.636 339.289 209.756 339.495 210.793 339.934C211.829 340.373 212.757 341.034 213.511 341.87L211.701 343.56C211.191 342.989 210.565 342.535 209.864 342.228C209.164 341.921 208.405 341.768 207.641 341.78C206.919 341.749 206.199 341.864 205.523 342.118C204.848 342.373 204.231 342.762 203.709 343.261C203.188 343.76 202.773 344.36 202.489 345.024C202.206 345.688 202.059 346.403 202.059 347.125C202.059 347.847 202.206 348.562 202.489 349.226C202.773 349.89 203.188 350.49 203.709 350.989C204.231 351.488 204.848 351.877 205.523 352.132C206.199 352.386 206.919 352.501 207.641 352.47C208.408 352.483 209.17 352.328 209.871 352.015C210.573 351.702 211.197 351.24 211.701 350.66L213.531 352.4C212.776 353.235 211.848 353.895 210.812 354.334C209.775 354.773 208.655 354.98 207.531 354.94C202.811 354.96 199.371 351.68 199.371 347.14Z" fill="#EBEBEB"/>
<path d="M183.941 359.05H165.101V340.21H183.941V359.05ZM166.101 358.05H182.941V341.21H166.101V358.05Z" fill="#EBEBEB"/>
<path d="M161.511 362.97C160.951 362.55 165.451 355.79 172.381 348.62C179.311 341.45 185.891 336.69 186.381 337.23C186.871 337.77 181.111 343.35 174.301 350.43C167.491 357.51 162.091 363.43 161.511 362.97Z" fill="#E0E0E0"/>
<path d="M186.641 362.56C186.031 363 180.891 356.75 174.101 349.5C167.311 342.25 161.431 336.69 161.901 336.11C162.371 335.53 169.091 340.31 176.001 347.72C182.911 355.13 187.211 362.2 186.641 362.56Z" fill="#E0E0E0"/>
<path d="M57.8106 285.69L48.5606 285.03L46.4306 289.19L42.8806 288.94L52.5306 271.01L55.9106 271.25L62.9106 290.36L59.3106 290.11L57.8106 285.69ZM56.8706 282.91L53.9606 274.56L49.9606 282.41L56.8706 282.91Z" fill="#EBEBEB"/>
<path d="M27.6006 289.95L4.86063 288.34L6.48063 265.56L29.2106 267.18L27.6006 289.95ZM5.93063 287.41L26.6706 288.89L28.1406 268.14L7.40063 266.67L5.93063 287.41Z" fill="#EBEBEB"/>
<path d="M0.0306319 292.9C-0.489368 292.45 5.66063 284.7 14.7106 276.58C23.7606 268.46 32.1006 263.13 32.5006 263.69C32.9006 264.25 25.3706 270.47 16.5006 278.51C7.63063 286.55 0.580632 293.4 0.0306319 292.9Z" fill="#E0E0E0"/>
<path d="M30.6806 294.62C30.0406 295.02 24.4206 286.87 16.7506 277.44C9.08063 268.01 2.31063 260.8 2.81063 260.25C3.31063 259.7 10.9906 266.19 18.8106 275.8C26.6306 285.41 31.2706 294.27 30.6806 294.62Z" fill="#E0E0E0"/>
<path d="M441.461 186.77C442.331 189.83 440.461 192.3 435.841 193.6L426.961 196.11L421.961 178.25L430.331 175.88C434.611 174.67 437.421 175.88 438.221 178.66C438.477 179.457 438.502 180.31 438.293 181.121C438.084 181.931 437.65 182.666 437.041 183.24C438.067 183.245 439.062 183.596 439.864 184.237C440.666 184.877 441.229 185.77 441.461 186.77ZM425.961 179.91L427.361 184.84L432.051 183.51C434.351 182.86 435.421 181.67 434.961 180.04C434.501 178.41 432.961 177.93 430.661 178.58L425.961 179.91ZM438.031 187.38C437.521 185.6 435.941 185.19 433.441 185.9L428.091 187.42L429.541 192.57L434.901 191.05C437.401 190.34 438.531 189.17 438.031 187.38Z" fill="#EBEBEB"/>
<path d="M388.471 209.19L382.261 187.26L404.191 181.05L410.401 202.98L388.471 209.19ZM383.471 187.95L389.131 207.95L409.131 202.28L403.461 182.28L383.471 187.95Z" fill="#EBEBEB"/>
<path d="M385.481 215.13C384.831 214.87 387.981 205.5 393.731 194.78C399.481 184.06 405.521 176.22 406.081 176.62C406.641 177.02 401.681 185.41 396.081 196.01C390.481 206.61 386.161 215.41 385.481 215.13Z" fill="#E0E0E0"/>
<path d="M414.891 206.32C414.421 206.91 406.371 201.16 395.951 194.9C385.531 188.64 376.711 184.15 377.011 183.46C377.311 182.77 386.731 186.27 397.291 192.67C407.851 199.07 415.331 205.79 414.891 206.32Z" fill="#E0E0E0"/>
<path d="M439.061 403.56C439.061 403.7 340.911 403.82 219.881 403.82C98.8506 403.82 0.670633 403.65 0.670633 403.56C0.670633 403.47 98.8006 403.3 219.881 403.3C340.961 403.3 439.061 403.36 439.061 403.56Z" fill="black"/>
<path d="M310.211 49.79H53.4006V310.31H310.211V49.79Z" fill="white"/>
<path d="M310.211 310.31C310.211 310.31 310.211 310.19 310.211 309.99C310.211 309.79 310.211 309.47 310.211 309.07C310.211 308.26 310.211 307.07 310.211 305.47C310.211 302.29 310.211 297.6 310.161 291.47C310.161 279.23 310.091 261.29 310.041 238.47C309.991 192.9 309.911 127.82 309.811 49.79L310.261 50.24L53.4806 50.31L54.0006 49.79C54.0006 145.26 54.0006 234.69 53.9306 310.3L53.4806 309.86L239.541 310.08L291.751 310.2L305.531 310.25H309.081H309.981H310.291H309.131H305.631L291.931 310.3L239.831 310.42L53.4806 310.64H53.0306V310.19C53.0306 234.58 53.0306 145.19 52.9606 49.68V49.16H53.5106L310.291 49.23H310.751V49.68C310.651 127.83 310.571 193 310.521 238.68C310.461 261.46 310.421 279.36 310.401 291.58C310.401 297.66 310.401 302.33 310.341 305.49C310.341 307.05 310.341 308.24 310.341 309.04V309.93C310.312 310.061 310.269 310.189 310.211 310.31Z" fill="#263238"/>
<path d="M73.5606 92.28V99.19H72.2706V93.36H70.8106V92.28H73.5606Z" fill="black"/>
<path d="M74.8906 98.44C74.8906 98.3336 74.9116 98.2283 74.9523 98.13C74.993 98.0317 75.0527 97.9425 75.1279 97.8672C75.2031 97.792 75.2924 97.7324 75.3907 97.6917C75.4889 97.651 75.5943 97.63 75.7006 97.63C75.807 97.63 75.9123 97.651 76.0106 97.6917C76.1089 97.7324 76.1982 97.792 76.2734 97.8672C76.3486 97.9425 76.4083 98.0317 76.449 98.13C76.4897 98.2283 76.5106 98.3336 76.5106 98.44C76.5106 98.5464 76.4897 98.6517 76.449 98.75C76.4083 98.8482 76.3486 98.9375 76.2734 99.0128C76.1982 99.088 76.1089 99.1476 76.0106 99.1883C75.9123 99.229 75.807 99.25 75.7006 99.25C75.5943 99.25 75.4889 99.229 75.3907 99.1883C75.2924 99.1476 75.2031 99.088 75.1279 99.0128C75.0527 98.9375 74.993 98.8482 74.9523 98.75C74.9116 98.6517 74.8906 98.5464 74.8906 98.44Z" fill="black"/>
<path d="M105.561 122.64H102.101L101.421 124.24H100.101L103.211 117.33H104.471L107.591 124.24H106.251L105.561 122.64ZM105.131 121.64L103.831 118.64L102.541 121.64H105.131Z" fill="black"/>
<path d="M70.7306 67.8C72.2825 67.8 73.5406 66.5419 73.5406 64.99C73.5406 63.4381 72.2825 62.18 70.7306 62.18C69.1787 62.18 67.9206 63.4381 67.9206 64.99C67.9206 66.5419 69.1787 67.8 70.7306 67.8Z" fill="black"/>
<path d="M79.2406 67.8C80.7926 67.8 82.0506 66.5419 82.0506 64.99C82.0506 63.4381 80.7926 62.18 79.2406 62.18C77.6887 62.18 76.4306 63.4381 76.4306 64.99C76.4306 66.5419 77.6887 67.8 79.2406 67.8Z" fill="black"/>
<path d="M87.7506 67.8C89.3026 67.8 90.5606 66.5419 90.5606 64.99C90.5606 63.4381 89.3026 62.18 87.7506 62.18C86.1987 62.18 84.9406 63.4381 84.9406 64.99C84.9406 66.5419 86.1987 67.8 87.7506 67.8Z" fill="black"/>
<path d="M310.211 78.89C310.211 79.03 253.011 79.15 182.461 79.15C111.911 79.15 54.7006 79.03 54.7006 78.89C54.7006 78.75 111.891 78.63 182.461 78.63C253.031 78.63 310.211 78.75 310.211 78.89Z" fill="black"/>
<path d="M282.131 98.21C282.131 98.35 237.601 98.47 182.681 98.47C127.761 98.47 83.2106 98.35 83.2106 98.21C83.2106 98.07 127.741 97.95 182.681 97.95C237.621 97.95 282.131 98.06 282.131 98.21Z" fill="black"/>
<path d="M159.971 104.97C159.971 105.11 142.971 105.23 121.971 105.23C100.971 105.23 83.9106 105.11 83.9106 104.97C83.9106 104.83 100.911 104.71 121.971 104.71C143.031 104.71 159.971 104.82 159.971 104.97Z" fill="black"/>
<path d="M94.8106 125.33H85.7006V116.22H94.8106V125.33ZM86.7006 124.33H93.8106V117.22H86.7006V124.33Z" fill="black"/>
<path d="M107.171 139.66C107.171 140.84 106.241 141.53 104.461 141.53H101.031V134.62H104.261C105.921 134.62 106.811 135.32 106.811 136.42C106.821 136.732 106.743 137.04 106.585 137.309C106.428 137.578 106.197 137.797 105.921 137.94C106.293 138.044 106.619 138.27 106.845 138.582C107.072 138.894 107.187 139.274 107.171 139.66ZM102.311 135.66V137.56H104.131C105.011 137.56 105.521 137.25 105.521 136.62C105.521 135.99 105.011 135.62 104.131 135.62L102.311 135.66ZM105.871 139.56C105.871 138.87 105.351 138.56 104.381 138.56H102.311V140.56H104.381C105.351 140.56 105.871 140.22 105.871 139.56Z" fill="black"/>
<path d="M94.8106 142.63H85.7006V133.56H94.8106V142.63ZM86.7006 141.63H93.8106V134.56H86.7006V141.63Z" fill="black"/>
<path d="M100.531 155.37C100.566 154.639 100.816 153.936 101.248 153.345C101.679 152.755 102.275 152.304 102.96 152.049C103.645 151.793 104.391 151.744 105.103 151.908C105.816 152.072 106.465 152.441 106.971 152.97L106.141 153.75C105.908 153.491 105.622 153.284 105.303 153.145C104.984 153.005 104.639 152.935 104.291 152.94C103.646 152.94 103.028 153.196 102.572 153.652C102.117 154.107 101.861 154.726 101.861 155.37C101.861 156.014 102.117 156.633 102.572 157.088C103.028 157.544 103.646 157.8 104.291 157.8C104.64 157.805 104.986 157.734 105.305 157.593C105.625 157.451 105.91 157.242 106.141 156.98L106.971 157.77C106.465 158.299 105.816 158.668 105.103 158.832C104.391 158.996 103.645 158.947 102.96 158.691C102.275 158.436 101.679 157.985 101.248 157.395C100.816 156.804 100.566 156.101 100.531 155.37Z" fill="black"/>
<path d="M94.8106 159.92H85.7006V150.81H94.8106V159.92ZM86.7006 158.92H93.8106V151.81H86.7006V158.92Z" fill="black"/>
<path d="M101.031 169.21H104.031C106.271 169.21 107.801 170.59 107.801 172.66C107.801 174.73 106.271 176.12 104.031 176.12H101.031V169.21ZM104.031 175.03C104.354 175.051 104.679 175.005 104.984 174.896C105.289 174.787 105.568 174.616 105.805 174.394C106.042 174.173 106.23 173.905 106.359 173.607C106.488 173.31 106.554 172.989 106.554 172.665C106.554 172.341 106.488 172.02 106.359 171.723C106.23 171.425 106.042 171.157 105.805 170.936C105.568 170.714 105.289 170.543 104.984 170.434C104.679 170.324 104.354 170.279 104.031 170.3H102.311V175.03H104.031Z" fill="black"/>
<path d="M94.8106 177.22H85.7006V168.11H94.8106V177.22ZM86.7006 176.22H93.8106V169.11H86.7006V176.22Z" fill="black"/>
<path d="M182.671 120.78C182.671 120.92 167.671 121.04 149.111 121.04C130.551 121.04 115.541 120.92 115.541 120.78C115.541 120.64 130.541 120.52 149.111 120.52C167.681 120.52 182.671 120.63 182.671 120.78Z" fill="black"/>
<path d="M275.071 138.07C275.071 138.22 239.351 138.33 195.311 138.33C151.271 138.33 115.541 138.22 115.541 138.07C115.541 137.92 151.251 137.81 195.311 137.81C239.371 137.81 275.071 137.93 275.071 138.07Z" fill="black"/>
<path d="M137.491 172.66C137.491 172.8 132.581 172.92 126.491 172.92C120.401 172.92 115.491 172.8 115.491 172.66C115.491 172.52 120.401 172.4 126.491 172.4C132.581 172.4 137.491 172.56 137.491 172.66Z" fill="black"/>
<path d="M195.301 155.37C195.301 155.51 177.451 155.63 155.421 155.63C133.391 155.63 115.541 155.51 115.541 155.37C115.541 155.23 133.391 155.11 155.421 155.11C177.451 155.11 195.301 155.22 195.301 155.37Z" fill="black"/>
<path d="M73.8106 197.28V198.36H68.7106V197.5L71.4606 194.9C72.1306 194.26 72.2506 193.85 72.2506 193.47C72.2506 192.83 71.8106 192.47 70.9606 192.47C70.6545 192.454 70.3489 192.511 70.0691 192.636C69.7892 192.762 69.543 192.951 69.3506 193.19L68.4506 192.5C68.7676 192.118 69.1696 191.814 69.6245 191.615C70.0793 191.415 70.5745 191.324 71.0706 191.35C72.5706 191.35 73.5406 192.11 73.5406 193.35C73.5299 193.776 73.4215 194.195 73.2239 194.572C73.0263 194.95 72.7446 195.278 72.4006 195.53L70.5506 197.29L73.8106 197.28Z" fill="black"/>
<path d="M74.5606 197.61C74.5606 197.395 74.646 197.189 74.7979 197.037C74.9498 196.885 75.1558 196.8 75.3706 196.8C75.5855 196.8 75.7915 196.885 75.9434 197.037C76.0953 197.189 76.1806 197.395 76.1806 197.61C76.1806 197.825 76.0953 198.031 75.9434 198.183C75.7915 198.335 75.5855 198.42 75.3706 198.42C75.1558 198.42 74.9498 198.335 74.7979 198.183C74.646 198.031 74.5606 197.825 74.5606 197.61Z" fill="black"/>
<path d="M103.141 221.81H99.6906L99.0106 223.41H97.6806L100.791 216.5H102.061L105.181 223.41H103.811L103.141 221.81ZM102.721 220.81L101.421 217.81L100.121 220.81H102.721Z" fill="black"/>
<path d="M279.711 197.38C279.711 197.52 235.181 197.64 180.261 197.64C125.341 197.64 80.8106 197.56 80.8106 197.38C80.8106 197.2 125.331 197.12 180.271 197.12C235.211 197.12 279.711 197.24 279.711 197.38Z" fill="black"/>
<path d="M157.561 204.14C157.561 204.28 140.561 204.4 119.501 204.4C98.4406 204.4 81.4406 204.28 81.4406 204.14C81.4406 204 98.4406 203.88 119.501 203.88C140.561 203.88 157.561 203.99 157.561 204.14Z" fill="black"/>
<path d="M92.3506 224.56H83.2406V215.45H92.3506V224.56ZM84.2406 223.56H91.3506V216.45H84.2406V223.56Z" fill="black"/>
<path d="M104.751 238.83C104.751 240.01 103.821 240.7 102.051 240.7H98.6106V233.79H101.811C103.471 233.79 104.361 234.49 104.361 235.59C104.369 235.901 104.29 236.208 104.132 236.477C103.975 236.745 103.746 236.965 103.471 237.11C103.849 237.206 104.183 237.43 104.416 237.743C104.649 238.056 104.767 238.44 104.751 238.83ZM99.9006 234.83V236.74H101.711C102.601 236.74 103.101 236.42 103.101 235.79C103.101 235.16 102.601 234.79 101.711 234.79L99.9006 234.83ZM103.461 238.73C103.461 238.04 102.941 237.73 101.971 237.73H99.9006V239.73H101.971C102.941 239.7 103.461 239.39 103.461 238.7V238.73Z" fill="black"/>
<path d="M92.3506 241.8H83.2406V232.69H92.3506V241.8ZM84.2406 240.8H91.3506V233.69H84.2406V240.8Z" fill="black"/>
<path d="M98.1206 254.56C98.1159 254.08 98.2095 253.603 98.3958 253.161C98.582 252.718 98.8569 252.318 99.2035 251.985C99.5501 251.653 99.9611 251.395 100.411 251.227C100.861 251.059 101.341 250.985 101.821 251.01C102.332 250.989 102.842 251.081 103.314 251.28C103.786 251.479 104.208 251.779 104.551 252.16L103.731 252.94C103.497 252.682 103.212 252.476 102.893 252.336C102.574 252.197 102.229 252.126 101.881 252.13C101.236 252.13 100.618 252.386 100.162 252.842C99.7067 253.297 99.4506 253.916 99.4506 254.56C99.4506 255.204 99.7067 255.823 100.162 256.278C100.618 256.734 101.236 256.99 101.881 256.99C102.23 256.994 102.576 256.923 102.895 256.782C103.214 256.64 103.499 256.432 103.731 256.17L104.551 256.96C104.047 257.49 103.398 257.861 102.686 258.025C101.973 258.189 101.228 258.141 100.542 257.885C99.8573 257.629 99.2623 257.178 98.8318 256.587C98.4012 255.995 98.1539 255.291 98.1206 254.56Z" fill="black"/>
<path d="M92.3506 259.09H83.2406V249.98H92.3506V259.09ZM84.2406 258.09H91.3506V250.98H84.2406V258.09Z" fill="black"/>
<path d="M98.6106 268.38H101.611C103.851 268.38 105.381 269.76 105.381 271.84C105.381 273.92 103.851 275.29 101.611 275.29H98.6106V268.38ZM101.611 274.21C101.94 274.24 102.272 274.202 102.586 274.096C102.9 273.991 103.188 273.821 103.433 273.598C103.677 273.375 103.872 273.104 104.006 272.801C104.14 272.498 104.209 272.171 104.209 271.84C104.209 271.509 104.14 271.182 104.006 270.879C103.872 270.576 103.677 270.305 103.433 270.082C103.188 269.859 102.9 269.689 102.586 269.584C102.272 269.478 101.94 269.44 101.611 269.47H99.9406V274.21H101.611Z" fill="black"/>
<path d="M92.3506 276.39H83.2406V267.28H92.3506V276.39ZM84.2406 275.39H91.3506V268.28H84.2406V275.39Z" fill="black"/>
<path d="M180.261 219.95C180.261 220.09 165.261 220.21 146.691 220.21C128.121 220.21 113.121 220.09 113.121 219.95C113.121 219.81 128.121 219.69 146.691 219.69C165.261 219.69 180.261 219.81 180.261 219.95Z" fill="black"/>
<path d="M272.651 237.24C272.651 237.39 236.941 237.5 192.891 237.5C148.841 237.5 113.121 237.39 113.121 237.24C113.121 237.09 148.831 236.98 192.891 236.98C236.951 236.98 272.651 237.1 272.651 237.24Z" fill="black"/>
<path d="M135.081 271.83C135.081 271.98 130.161 272.09 124.081 272.09C118.001 272.09 113.081 271.98 113.081 271.83C113.081 271.68 118.001 271.57 124.081 271.57C130.161 271.57 135.081 271.69 135.081 271.83Z" fill="black"/>
<path d="M192.891 254.56C192.891 254.7 175.031 254.82 153.011 254.82C130.991 254.82 113.121 254.7 113.121 254.56C113.121 254.42 130.981 254.3 153.011 254.3C175.041 254.3 192.891 254.39 192.891 254.56Z" fill="black"/>
<path d="M257.471 295.56H216.301C214.641 295.56 212.998 295.233 211.465 294.598C209.932 293.962 208.539 293.031 207.366 291.857C206.193 290.683 205.263 289.29 204.629 287.756C203.995 286.223 203.669 284.579 203.671 282.92C203.671 279.57 205.001 276.358 207.37 273.989C209.738 271.621 212.951 270.29 216.301 270.29H257.471C260.82 270.29 264.033 271.621 266.401 273.989C268.77 276.358 270.101 279.57 270.101 282.92C270.102 284.579 269.776 286.223 269.142 287.756C268.508 289.29 267.578 290.683 266.405 291.857C265.232 293.031 263.839 293.962 262.306 294.598C260.773 295.233 259.13 295.56 257.471 295.56Z" fill="#3730A3"/>
<path d="M226.581 279.92V286.79H225.271L221.811 282.62V286.79H220.241V279.92H221.551L224.961 284.09V279.92H226.581Z" fill="white"/>
<path d="M233.521 285.56V286.84H228.201V279.97H233.391V281.25H229.811V282.74H233.001V283.97H229.811V285.56H233.521Z" fill="white"/>
<path d="M239.041 286.79L237.381 284.41L235.751 286.79H233.931L236.471 283.3L234.061 279.92H235.861L237.441 282.15L238.991 279.92H240.711L238.311 283.24L240.881 286.79H239.041Z" fill="white"/>
<path d="M242.811 281.22H240.611V279.92H246.611V281.22H244.411V286.79H242.811V281.22Z" fill="white"/>
<path d="M255.301 286.27C255.217 286.269 255.135 286.247 255.062 286.207C254.989 286.167 254.926 286.11 254.881 286.04C254.808 285.93 254.782 285.795 254.809 285.666C254.835 285.537 254.911 285.423 255.021 285.35L258.211 283.22C258.261 283.188 258.303 283.144 258.331 283.091C258.359 283.039 258.373 282.98 258.371 282.92C258.371 282.86 258.355 282.8 258.325 282.748C258.295 282.695 258.252 282.651 258.201 282.62L255.041 280.75C254.929 280.681 254.849 280.571 254.818 280.444C254.786 280.317 254.806 280.182 254.873 280.069C254.94 279.957 255.048 279.875 255.175 279.841C255.302 279.808 255.437 279.825 255.551 279.89L258.711 281.75C258.908 281.869 259.072 282.035 259.188 282.234C259.304 282.433 259.368 282.658 259.374 282.889C259.38 283.119 259.328 283.347 259.223 283.552C259.117 283.756 258.962 283.931 258.771 284.06L255.581 286.18C255.498 286.237 255.401 286.268 255.301 286.27Z" fill="white"/>
<path d="M84.5706 142.47C84.2706 142.17 86.2006 139.74 88.8906 137.04C91.5806 134.34 94.0106 132.42 94.3206 132.72C94.6306 133.02 92.6906 135.46 90.0006 138.15C87.3106 140.84 84.8806 142.78 84.5706 142.47Z" fill="#4338CA"/>
<path d="M95.9806 143.42C95.6806 143.73 93.0906 141.63 90.2006 138.74C87.3106 135.85 85.2006 133.27 85.5206 132.96C85.8406 132.65 88.4206 134.75 91.3006 137.64C94.1806 140.53 96.2906 143.12 95.9806 143.42Z" fill="#4338CA"/>
<path d="M82.3806 225C82.0706 224.69 84.0106 222.26 86.7006 219.57C89.3906 216.88 91.8206 214.95 92.1306 215.25C92.4406 215.55 90.5006 217.98 87.8006 220.68C85.1006 223.38 82.6806 225.3 82.3806 225Z" fill="#4338CA"/>
<path d="M93.8106 225.95C93.5006 226.25 90.9206 224.16 88.0306 221.27C85.1406 218.38 83.0306 215.79 83.3506 215.49C83.6706 215.19 86.2406 217.28 89.1306 220.17C92.0206 223.06 94.0906 225.64 93.8106 225.95Z" fill="#4338CA"/>
<path d="M276.331 428.1L206.121 405.56C205.933 405.502 205.737 405.478 205.541 405.49L151.541 409.49C142.051 386.49 130.161 357.74 124.751 344.61C123.849 342.457 122.397 340.58 120.54 339.167C118.682 337.754 116.486 336.855 114.171 336.56L55.6906 328.92C54.9953 328.836 54.29 328.935 53.6453 329.209C53.0006 329.483 52.439 329.921 52.0168 330.48C51.5946 331.039 51.3266 331.699 51.2395 332.394C51.1524 333.089 51.2494 333.794 51.5206 334.44L84.4506 411.23C84.8865 412.249 85.5294 413.166 86.3385 413.924C87.1475 414.681 88.1052 415.262 89.1506 415.63L156.041 442.32C157.569 442.929 159.226 443.149 160.861 442.96L165.141 442.49C179.961 440.94 253.141 433.49 276.031 431.09C276.393 431.071 276.737 430.923 277 430.672C277.263 430.422 277.428 430.085 277.464 429.724C277.5 429.362 277.406 429 277.198 428.702C276.99 428.404 276.682 428.191 276.331 428.1Z" fill="#E0E0E0"/>
<path d="M276.331 428.1C276.565 428.175 276.777 428.305 276.951 428.479C277.125 428.653 277.255 428.866 277.331 429.1C277.421 429.396 277.423 429.712 277.336 430.009C277.249 430.305 277.077 430.57 276.841 430.77C276.525 431.014 276.139 431.147 275.741 431.15L274.421 431.29L257.991 433.03L197.551 439.32L177.551 441.4L166.901 442.5L161.431 443.09C159.536 443.385 157.597 443.16 155.821 442.44L111.081 424.62L99.1306 419.85L93.0406 417.43L89.9706 416.21C89.4606 415.99 88.9706 415.81 88.4206 415.58C87.8973 415.348 87.401 415.06 86.9406 414.72C86.0145 414.035 85.2386 413.167 84.6606 412.17C84.1006 411.17 83.7406 410.12 83.2806 409.09L80.6106 402.88C78.8173 398.72 77.014 394.517 75.2006 390.27C67.9306 373.27 60.3906 355.75 52.6806 337.77L51.6206 335.3C51.1725 334.478 50.9419 333.556 50.9506 332.62C51.0082 331.667 51.383 330.76 52.0154 330.044C52.6479 329.328 53.5016 328.845 54.4406 328.67C54.6706 328.62 54.9106 328.67 55.1506 328.6L55.8406 328.65L57.1606 328.83L59.7906 329.17L65.0306 329.85L85.7106 332.56L105.911 335.2L110.911 335.85C112.561 336.1 114.211 336.21 115.911 336.6C119.195 337.446 122.047 339.486 123.911 342.32C124.744 343.732 125.444 345.218 126.001 346.76C126.614 348.253 127.227 349.74 127.841 351.22L131.471 360.03L138.551 377.19C143.171 388.41 147.621 399.19 151.851 409.45L151.631 409.31L204.251 405.42L205.711 405.31C205.974 405.307 206.235 405.355 206.481 405.45L207.171 405.68L209.811 406.56L215.131 408.27L225.161 411.56L242.861 417.27L267.611 425.27L274.111 427.4C275.581 427.88 276.331 428.14 276.331 428.14C276.331 428.14 275.571 427.92 274.091 427.46L267.571 425.4L242.811 417.46L225.101 411.8L215.001 408.56L209.681 406.86L206.951 405.99C206.521 405.814 206.071 405.697 205.611 405.64L204.151 405.75L151.541 409.75H151.391L151.321 409.6C147.081 399.35 142.631 388.6 137.991 377.36L130.901 360.2C129.701 357.293 128.487 354.357 127.261 351.39C126.651 349.91 126.031 348.39 125.421 346.93C124.872 345.42 124.186 343.964 123.371 342.58C121.585 339.859 118.851 337.898 115.701 337.08C114.141 336.7 112.461 336.58 110.821 336.34L105.821 335.69L85.6106 333.06L64.9306 330.36L59.6806 329.68L57.0506 329.33C56.2086 329.16 55.3473 329.106 54.4906 329.17C53.6675 329.326 52.9199 329.752 52.3658 330.38C51.8116 331.009 51.4826 331.804 51.4306 332.64C51.4244 333.497 51.6415 334.342 52.0606 335.09L53.1506 337.56L75.6606 390.07C77.4806 394.31 79.2806 398.513 81.0606 402.68C81.9606 404.76 82.8406 406.83 83.7306 408.89C84.1806 409.89 84.5706 410.99 85.0906 411.89C85.6297 412.827 86.3586 413.641 87.2306 414.28C87.6632 414.6 88.1293 414.871 88.6206 415.09C89.1006 415.3 89.6206 415.49 90.1406 415.7L93.2106 416.93L99.2906 419.36L111.291 424.13L156.011 442C157.719 442.7 159.587 442.918 161.411 442.63L166.891 442.04L177.541 440.96L197.541 438.96L258.001 432.83L274.441 431.18L275.761 431.06C276.142 431.059 276.514 430.937 276.821 430.71C277.048 430.521 277.215 430.27 277.302 429.988C277.39 429.706 277.392 429.404 277.311 429.12C277.215 428.767 276.985 428.466 276.671 428.28C276.451 428.15 276.331 428.11 276.331 428.1Z" fill="#263238"/>
<path d="M185.971 414.2L212.301 425.22L245.111 421.8L217.521 410.41L185.971 414.2Z" fill="#F5F5F5"/>
<path d="M166.121 435.03L217.521 430.39L168.441 410.93L152.661 412.12L161.001 432.24L166.121 435.03Z" fill="#F5F5F5"/>
<path d="M271.241 428.07L270.891 428.13L269.841 428.26L265.841 428.67L250.981 430.12L201.981 434.69L163.461 438.17H163.301L163.241 438.02L154.711 417.21L152.371 411.39C152.111 410.723 151.911 410.213 151.771 409.86C151.697 409.684 151.634 409.503 151.581 409.32C151.581 409.32 151.671 409.49 151.831 409.83L152.491 411.34L154.941 417.11C157.041 422.11 160.041 429.26 163.641 437.86L163.421 437.72L201.931 434.15L250.981 429.73L265.811 428.47L269.811 428.15L270.861 428.08L271.241 428.07Z" fill="black"/>
<path d="M53.2206 331.7H53.6606L54.9606 331.85L59.9606 332.5L78.3006 335C86.0406 336.08 95.3006 337.38 105.491 338.89L113.331 340.1L115.331 340.44C115.661 340.49 116.011 340.57 116.331 340.65C116.501 340.65 116.681 340.72 116.851 340.77C117.694 341.109 118.46 341.616 119.101 342.26C119.36 342.537 119.567 342.859 119.711 343.21L120.101 344.21C122.191 349.43 124.351 354.84 126.571 360.37C135.411 382.52 143.401 402.58 149.201 417.12C152.071 424.37 154.391 430.25 156.011 434.33C156.791 436.33 157.401 437.93 157.831 439.03C158.031 439.55 158.181 439.95 158.291 440.25C158.347 440.386 158.394 440.527 158.431 440.67C158.36 440.54 158.297 440.407 158.241 440.27L157.731 439.06L155.821 434.41C154.171 430.33 151.821 424.48 148.821 417.25L126.141 360.56C123.921 355.03 121.761 349.62 119.671 344.4L119.281 343.4C119.16 343.105 118.987 342.834 118.771 342.6C118.323 342.114 117.783 341.722 117.181 341.45C117.031 341.378 116.877 341.315 116.721 341.26L116.241 341.14C115.921 341.07 115.601 341 115.241 340.95L113.241 340.6L105.401 339.37L78.2406 335.37L59.9206 332.7L54.9206 331.96L53.6306 331.75L53.2206 331.7Z" fill="black"/>
<path d="M104.911 377.67C107.411 381.02 107.911 384.87 106.041 386.27C104.171 387.67 100.611 386.1 98.1106 382.75C95.6106 379.4 95.1106 375.56 96.9806 374.15C98.8506 372.74 102.411 374.33 104.911 377.67Z" fill="white"/>
<path d="M421.291 320.56C417.941 301.56 396.931 290.11 389.991 283.79L400.421 297.74C405.759 319.756 407.781 342.446 406.421 365.06C406.281 367.53 406.551 370.86 408.311 371.21C408.947 371.263 409.578 371.066 410.071 370.66C416.231 366.71 420.231 357.66 421.121 348.34C422.011 339.02 422.811 329.35 421.291 320.56Z" fill="#6366F1"/>
<path d="M405.911 299.28C404.911 297.37 405.321 291.28 399.911 297.64L399.561 295.26L366.131 269.56L291.621 273.43C284.471 273.88 273.731 286.26 271.051 291.43C268.851 310.66 268.411 327.73 268.411 327.73C268.411 327.73 265.851 349.11 268.411 359.22C270.971 369.33 274.001 372.98 277.961 380.84C280.858 386.21 284.471 391.162 288.701 395.56L292.181 422.56L370.021 429.56L405.651 427.56C405.651 427.56 402.461 374.31 402.461 373.37C402.461 372.93 406.911 362.65 411.691 351.74C419.811 333.07 415.231 317.3 405.911 299.28Z" fill="#455A64"/>
<path d="M210.431 396.13C210.821 396.13 214.711 369.84 217.261 363.87C219.661 358.24 271.051 291.42 271.051 291.42L283.151 330.42L277.961 351.28L249.961 384.97L242.051 409.39L210.431 396.13Z" fill="#455A64"/>
<path d="M416.271 319.26C412.581 295.87 394.361 296.89 394.361 296.89L376.251 328.4V393.56L288.881 401.12L287.261 423.06C287.261 423.06 374.311 442.96 394.421 436.29C407.731 431.88 418.971 420.75 420.201 402.56C421.431 384.37 419.971 342.66 416.271 319.26Z" fill="#455A64"/>
<path d="M250.051 384.93C249.797 383.44 249.463 381.964 249.051 380.51C247.955 377.016 245.977 373.863 243.307 371.357C240.637 368.85 237.367 367.074 233.811 366.2C232.332 365.868 230.836 365.614 229.331 365.44C229.742 365.391 230.159 365.391 230.571 365.44C231.692 365.486 232.806 365.633 233.901 365.88C237.55 366.688 240.912 368.468 243.632 371.031C246.352 373.594 248.328 376.845 249.351 380.44C249.666 381.518 249.88 382.623 249.991 383.74C250.06 384.133 250.08 384.532 250.051 384.93Z" fill="black"/>
<path d="M291.871 400.22C291.995 400.187 292.122 400.163 292.251 400.15L293.361 399.99L297.641 399.42L313.411 397.42L365.411 391.1L376.971 389.72L376.741 389.97C377.411 372.25 377.741 356.63 377.621 345.44C377.621 339.85 377.501 335.36 377.431 332.27C377.431 330.75 377.361 329.56 377.341 328.73V327.81C377.341 327.6 377.341 327.5 377.341 327.49C377.351 327.596 377.351 327.704 377.341 327.81C377.341 328.04 377.341 328.34 377.401 328.72C377.401 329.56 377.501 330.72 377.571 332.27C377.701 335.35 377.841 339.84 377.921 345.44C378.101 356.63 377.861 372.27 377.211 389.98V390.2H376.991L365.431 391.59L313.381 397.76L297.601 399.57L293.301 400.03L292.181 400.14L291.871 400.22Z" fill="black"/>
<path d="M421.391 400.22C421.404 400.353 421.404 400.487 421.391 400.62C421.391 400.9 421.391 401.29 421.331 401.78C421.24 403.271 421.07 404.757 420.821 406.23C420.428 408.567 419.856 410.87 419.111 413.12C418.089 416.091 416.72 418.931 415.031 421.58C412.975 424.805 410.381 427.653 407.361 430C403.89 432.694 399.879 434.608 395.601 435.61C393.298 436.164 390.959 436.555 388.601 436.78C386.147 437 383.684 437.093 381.221 437.06C376.056 436.956 370.905 436.474 365.811 435.62L336.301 430.77L323.431 428.63L312.221 426.56C305.391 425.28 299.851 424.31 296.011 423.73L291.581 423.08L290.431 422.92C290.298 422.908 290.167 422.881 290.041 422.84H290.431L291.591 422.96C292.591 423.07 294.111 423.24 296.041 423.51C299.891 424.03 305.441 424.95 312.291 426.18L323.481 428.18L336.361 430.27L365.871 435.09C370.948 435.954 376.082 436.446 381.231 436.56C383.731 436.56 386.171 436.49 388.561 436.3C390.891 436.085 393.204 435.704 395.481 435.16C399.704 434.183 403.667 432.307 407.101 429.66C410.092 427.357 412.669 424.56 414.721 421.39C416.412 418.773 417.792 415.968 418.831 413.03C419.594 410.804 420.193 408.524 420.621 406.21C420.951 404.3 421.151 402.8 421.221 401.78L421.341 400.62C421.348 400.486 421.365 400.352 421.391 400.22Z" fill="black"/>
<path d="M289.511 401.83C289.47 401.696 289.443 401.559 289.431 401.42C289.381 401.11 289.311 400.7 289.241 400.2C289.081 399.08 288.851 397.52 288.571 395.54V395.61L281.951 388.28C280.66 386.44 279.494 384.516 278.461 382.52C277.305 380.248 276.283 377.911 275.401 375.52C273.449 370.116 272.108 364.512 271.401 358.81C270.703 352.639 270.559 346.417 270.971 340.22C271.281 334.52 271.871 329.4 272.431 325.12C272.991 320.84 273.521 317.39 273.901 315L274.351 312.26C274.401 311.97 274.441 311.74 274.481 311.55C274.488 311.467 274.508 311.386 274.541 311.31C274.55 311.39 274.55 311.47 274.541 311.55C274.541 311.75 274.541 311.98 274.461 312.27C274.371 312.95 274.261 313.87 274.111 315.03C273.791 317.42 273.321 320.88 272.801 325.17C272.281 329.46 271.811 334.56 271.501 340.26C271.119 346.425 271.273 352.612 271.961 358.75C272.657 364.416 273.972 369.99 275.881 375.37C276.744 377.737 277.746 380.051 278.881 382.3C279.893 384.285 281.032 386.202 282.291 388.04L288.821 395.46L289.361 400.13C289.411 400.64 289.451 401.05 289.491 401.36C289.525 401.514 289.532 401.673 289.511 401.83Z" fill="black"/>
<path d="M389.561 404.26C388.901 403.529 388.296 402.75 387.751 401.93C386.661 400.46 385.131 398.46 383.341 396.33C381.551 394.2 379.861 392.33 378.611 391.01C377.893 390.325 377.224 389.59 376.611 388.81C377.424 389.375 378.175 390.025 378.851 390.75C380.569 392.409 382.195 394.162 383.721 396C385.257 397.826 386.695 399.732 388.031 401.71C388.625 402.506 389.138 403.361 389.561 404.26Z" fill="black"/>
<path d="M231.811 399.34C231.071 395.07 227.181 391.74 227.181 391.74C227.181 391.74 225.321 386.54 222.541 385.17C219.761 383.8 217.541 386.54 215.121 385.8C212.701 385.06 207.511 384.87 205.841 385.8C204.171 386.73 202.131 391.92 202.131 391.92C200.447 391.988 198.8 392.432 197.311 393.22C196.048 393.872 194.956 394.81 194.121 395.96C193.396 395.678 192.602 395.622 191.845 395.801C191.088 395.979 190.403 396.383 189.881 396.96C188.866 398.146 188.107 399.528 187.651 401.02L186.331 404.56C186.076 405.1 185.96 405.694 185.991 406.29C186.092 406.78 186.358 407.221 186.743 407.541C187.128 407.861 187.61 408.04 188.111 408.05C188.619 408.052 189.122 407.948 189.587 407.743C190.053 407.538 190.469 407.237 190.811 406.86C191.491 406.188 192.092 405.44 192.601 404.63L192.931 406.95C192.931 406.95 193.481 410.62 196.451 410.84C198.501 411 200.721 408.62 200.721 408.62L205.911 408.06L206.651 413.25C206.992 414.25 207.646 415.114 208.515 415.716C209.385 416.317 210.424 416.623 211.481 416.59C213.341 416.59 215.741 413.44 215.741 413.44L220.571 415.29C220.571 415.29 226.131 419.19 228.731 417.89C229.458 417.522 230.038 416.918 230.376 416.176C230.714 415.435 230.79 414.6 230.591 413.81C231.701 412.552 232.578 411.106 233.181 409.54C233.881 407.32 232.591 403.61 231.811 399.34Z" fill="#FFBE9D"/>
<path d="M192.811 406.06C192.599 404.224 192.663 402.367 193.001 400.55C193.174 398.712 193.626 396.912 194.341 395.21C194.481 395.21 193.931 397.64 193.511 400.63C193.091 403.62 193.001 406.06 192.811 406.06Z" fill="#EB996E"/>
<path d="M200.921 401.18C201.236 402.442 201.384 403.74 201.361 405.04C201.467 405.979 201.372 406.931 201.081 407.83C200.791 408.53 200.381 408.83 200.351 408.75C200.321 408.67 200.561 408.36 200.731 407.75C200.902 406.877 200.939 405.984 200.841 405.1C200.688 403.796 200.715 402.477 200.921 401.18Z" fill="#EB996E"/>
<path d="M204.381 398.97C204.481 399.07 203.801 399.97 202.851 400.89C201.901 401.81 201.061 402.55 200.951 402.45C200.841 402.35 201.531 401.45 202.481 400.53C203.431 399.61 204.281 398.87 204.381 398.97Z" fill="#EB996E"/>
<path d="M205.071 388.99C205.183 389.926 205.223 390.868 205.191 391.81C205.191 393.56 205.261 395.96 205.401 398.61C205.541 401.26 205.751 403.66 205.901 405.4C206.043 406.333 206.103 407.277 206.081 408.22C205.804 407.315 205.623 406.383 205.541 405.44C205.291 403.71 205.031 401.31 204.881 398.64C204.731 395.97 204.751 393.56 204.821 391.81C204.806 390.864 204.89 389.919 205.071 388.99Z" fill="#EB996E"/>
<path d="M224.531 390.98C224.531 390.98 224.311 391.48 223.961 392.38C223.473 393.655 223.085 394.965 222.801 396.3C222.621 397.16 222.431 398.09 222.221 399.08C222.022 400.164 221.727 401.228 221.341 402.26C220.909 403.426 220.182 404.46 219.231 405.26C218.711 405.711 218.092 406.032 217.425 406.197C216.757 406.362 216.06 406.366 215.391 406.21C214.695 406.053 214.065 405.682 213.591 405.15C213.152 404.621 212.872 403.98 212.781 403.3C212.639 402.085 212.615 400.859 212.711 399.64C212.824 397.594 213.139 395.564 213.651 393.58C213.994 392.243 214.435 390.933 214.971 389.66C215.161 389.21 215.311 388.87 215.431 388.66C215.482 388.538 215.549 388.424 215.631 388.32C215.506 388.807 215.349 389.284 215.161 389.75C214.701 391.037 214.317 392.349 214.011 393.68C213.556 395.651 213.281 397.659 213.191 399.68C213.111 400.86 213.141 402.045 213.281 403.22C213.362 403.808 213.604 404.361 213.981 404.82C214.388 405.267 214.922 405.581 215.511 405.72C216.104 405.857 216.722 405.851 217.313 405.703C217.904 405.555 218.451 405.27 218.911 404.87C219.803 404.12 220.491 403.157 220.911 402.07C221.539 400.145 222.057 398.185 222.461 396.2C222.774 394.857 223.217 393.548 223.781 392.29C223.936 391.946 224.113 391.612 224.311 391.29C224.431 391.08 224.511 390.97 224.531 390.98Z" fill="#EB996E"/>
<path d="M226.491 393.23C226.35 394.339 225.861 395.374 225.093 396.187C224.326 396.999 223.32 397.547 222.221 397.75C223.097 397.172 223.929 396.53 224.711 395.83C225.368 395.009 225.963 394.14 226.491 393.23Z" fill="#EB996E"/>
<path d="M215.751 406.16C216.079 407.548 216.163 408.983 216.001 410.4C215.947 411.661 215.77 412.914 215.471 414.14V414.21C215.433 414.229 215.392 414.24 215.35 414.241C215.307 414.242 215.266 414.234 215.227 414.217C215.189 414.199 215.155 414.174 215.128 414.141C215.1 414.109 215.081 414.071 215.071 414.03C215.071 413.93 215.071 413.89 215.071 413.89C215.071 413.89 215.071 413.94 215.141 413.98C215.211 414.02 215.281 414.06 215.311 413.98L215.251 414.06C215.251 413.38 215.401 411.96 215.491 410.32C215.48 408.929 215.566 407.539 215.751 406.16Z" fill="#EB996E"/>
<path d="M227.521 402.02C227.135 402.656 226.679 403.247 226.161 403.78C225.015 405.113 224.009 406.561 223.161 408.1C222.317 409.637 221.838 411.348 221.761 413.1C221.761 414.45 221.991 415.27 221.901 415.29C221.55 414.614 221.375 413.861 221.391 413.1C221.361 411.266 221.812 409.455 222.701 407.85C223.582 406.271 224.672 404.818 225.941 403.53C226.401 402.962 226.932 402.454 227.521 402.02Z" fill="#EB996E"/>
<path d="M225.471 411.24C225.158 410.116 225.21 408.921 225.62 407.828C226.03 406.736 226.776 405.801 227.751 405.16C231.241 402.68 241.691 396.16 241.911 396.16C242.131 396.16 254.181 392.16 259.251 391.64C264.321 391.12 286.511 402.14 286.511 402.14C286.511 402.14 291.661 409.56 290.831 416.68C290.001 423.8 285.361 424.21 285.361 424.21L278.921 422.64L272.281 421.37C272.281 421.37 257.591 425.46 255.281 424.71C252.971 423.96 252.171 421.45 254.671 420.09C257.171 418.73 264.361 416.6 264.361 416.6L269.891 414.26L251.891 416.83C251.891 416.83 236.671 419.83 234.891 419.41C233.111 418.99 232.841 417.66 232.691 416.41C232.691 416.41 226.561 419.41 224.741 417.77C222.921 416.13 222.121 412.56 225.471 411.24Z" fill="#FFBE9D"/>
<path d="M264.321 406.86C263.874 406.932 263.422 406.955 262.971 406.93C262.111 406.93 260.861 406.93 259.321 407.03C257.524 407.112 255.74 407.363 253.991 407.78C252.96 408.043 251.955 408.401 250.991 408.85C249.991 409.31 248.991 409.85 247.991 410.45C246.971 411.033 245.907 411.538 244.811 411.96C243.785 412.339 242.711 412.571 241.621 412.65C239.824 412.651 238.033 412.852 236.281 413.25C235.137 413.614 234.128 414.31 233.381 415.25C233.128 415.615 232.904 416 232.711 416.4C232.711 416.4 232.711 416.27 232.771 416.05C232.874 415.728 233.022 415.421 233.211 415.14C233.931 414.101 234.965 413.32 236.161 412.91C237.931 412.447 239.751 412.202 241.581 412.18C243.758 411.926 245.85 411.184 247.701 410.01C248.701 409.44 249.701 408.86 250.761 408.39C251.748 407.939 252.776 407.585 253.831 407.33C255.611 406.914 257.432 406.696 259.261 406.68C260.821 406.68 262.071 406.68 262.941 406.74C263.403 406.737 263.865 406.777 264.321 406.86Z" fill="#EB996E"/>
<path d="M258.881 399.27C258.777 399.338 258.666 399.395 258.551 399.44C258.341 399.54 258.011 399.67 257.551 399.82C256.323 400.198 255.07 400.486 253.801 400.68C252.211 400.96 250.291 401.17 248.251 401.68C246.052 402.344 243.941 403.268 241.961 404.43C238.27 406.483 234.417 408.229 230.441 409.65C228.921 410.19 227.671 410.59 226.801 410.85C226.359 411.01 225.904 411.127 225.441 411.2C225.855 410.978 226.291 410.797 226.741 410.66L230.311 409.3C234.229 407.789 238.039 406.009 241.711 403.97C243.728 402.788 245.885 401.861 248.131 401.21C249.985 400.791 251.861 400.477 253.751 400.27C255.009 400.111 256.258 399.88 257.491 399.58C257.948 399.451 258.412 399.347 258.881 399.27Z" fill="#EB996E"/>
<path d="M273.491 403.56C273.358 403.169 273.261 402.768 273.201 402.36C272.962 401.425 272.5 400.561 271.856 399.842C271.212 399.123 270.404 398.57 269.501 398.23C269.103 398.123 268.715 397.982 268.341 397.81C268.341 397.75 268.841 397.69 269.621 397.88C270.634 398.153 271.547 398.712 272.251 399.49C272.949 400.273 273.404 401.242 273.561 402.28C273.665 402.704 273.641 403.15 273.491 403.56Z" fill="#EB996E"/>
<path d="M281.811 414.79C281.792 414.228 281.742 413.667 281.661 413.11C281.32 411.81 280.552 410.662 279.481 409.85C278.378 409.049 277.161 408.419 275.871 407.98C275.309 407.831 274.771 407.606 274.271 407.31C274.855 407.318 275.433 407.426 275.981 407.63C277.361 407.984 278.661 408.599 279.811 409.44C280.977 410.321 281.767 411.611 282.021 413.05C282.166 413.636 282.091 414.255 281.811 414.79Z" fill="#EB996E"/>
<path d="M232.751 416.39C232.496 416.617 232.201 416.793 231.881 416.91C231.045 417.304 230.183 417.638 229.301 417.91C228.693 418.122 228.072 418.293 227.441 418.42C226.68 418.52 225.906 418.442 225.181 418.19C224.771 418.04 224.398 417.806 224.084 417.503C223.771 417.2 223.524 416.834 223.361 416.43C222.947 415.608 222.78 414.684 222.881 413.77C222.985 413.08 223.341 412.453 223.881 412.01C224.34 411.606 224.856 411.269 225.411 411.01L225.281 411.31C224.874 410.071 224.967 408.721 225.541 407.55C226.017 406.672 226.659 405.894 227.431 405.26C227.926 404.847 228.454 404.476 229.011 404.15C229.202 404.012 229.415 403.907 229.641 403.84C229.691 403.91 228.831 404.41 227.641 405.49C226.938 406.132 226.356 406.894 225.921 407.74C225.428 408.82 225.37 410.049 225.761 411.17L225.821 411.36L225.631 411.46C224.691 411.95 223.561 412.67 223.451 413.85C223.367 414.664 223.513 415.485 223.871 416.22C224.003 416.566 224.207 416.88 224.469 417.142C224.731 417.404 225.045 417.607 225.391 417.74C226.03 417.974 226.713 418.063 227.391 418C228.005 417.889 228.612 417.746 229.211 417.57C230.321 417.26 231.211 416.95 231.811 416.73C232.111 416.584 232.426 416.47 232.751 416.39Z" fill="#EB996E"/>
<path d="M310.231 214.1C308.061 192.44 303.471 170.88 304.421 149.1L286.611 160.22C287.501 168.84 279.751 175.52 275.261 182.92C272.574 187.441 270.998 192.534 270.662 197.783C270.327 203.031 271.241 208.284 273.331 213.11C274.931 216.71 277.201 220.11 277.791 224.01C278.791 230.59 274.721 237.28 276.221 243.77C277.941 251.24 287.081 255.34 294.451 253.24C301.821 251.14 307.101 244.24 309.271 236.93C311.441 229.62 310.991 221.73 310.231 214.1Z" fill="#263238"/>
<path d="M287.571 156.56C288.556 151.275 290.929 146.347 294.446 142.281C297.963 138.215 302.498 135.157 307.586 133.421C312.674 131.685 318.132 131.333 323.401 132.401C328.67 133.47 333.56 135.919 337.571 139.5C340.821 142.41 343.481 146.04 347.241 148.25C351.491 150.74 352.041 149.9 356.721 151.41C361.401 152.92 370.571 165.14 370.721 170.06L374.361 191.46C374.481 196.51 368.181 199.76 363.301 198.46C358.421 197.16 354.981 192.85 352.181 188.63C349.381 184.41 346.721 179.84 342.411 177.19C335.261 172.8 326.081 175.04 317.981 177.19C309.881 179.34 300.471 181.19 293.731 176.19C287.971 171.84 286.251 163.64 287.571 156.56Z" fill="#263238"/>
<path d="M284.991 187.56C284.991 173.48 293.281 155.71 307.341 156.35L351.641 164.75C353.703 164.841 355.655 165.704 357.111 167.167C358.567 168.631 359.42 170.587 359.501 172.65L361.171 278.15H361.471C361.471 278.15 346.081 316.85 316.681 309.59C310.851 308.15 315.161 293.64 313.621 287.28L313.331 287.34C313.271 286.57 313.221 285.86 313.161 285.13C312.3 280.371 311.942 275.534 312.091 270.7C311.481 262.21 311.271 258.7 311.271 258.81C311.271 258.92 293.171 256.91 288.051 233.76C285.511 222.3 284.941 203.21 284.991 187.56Z" fill="#FFBE9D"/>
<path d="M292.811 205.98C292.85 206.762 293.192 207.497 293.766 208.03C294.339 208.562 295.098 208.849 295.881 208.83C296.264 208.838 296.646 208.769 297.002 208.627C297.359 208.485 297.683 208.273 297.956 208.004C298.229 207.734 298.446 207.413 298.592 207.059C298.739 206.704 298.813 206.324 298.811 205.94C298.772 205.158 298.429 204.423 297.855 203.89C297.282 203.358 296.523 203.071 295.741 203.09C295.357 203.082 294.976 203.151 294.619 203.293C294.263 203.435 293.938 203.647 293.665 203.916C293.392 204.186 293.176 204.507 293.029 204.861C292.882 205.216 292.808 205.596 292.811 205.98Z" fill="#263238"/>
<path d="M289.721 197.23C290.111 197.6 292.281 195.78 295.511 195.6C298.741 195.42 301.201 196.88 301.511 196.47C301.681 196.28 301.251 195.6 300.181 194.91C298.725 194.024 297.03 193.612 295.331 193.73C293.669 193.849 292.087 194.489 290.811 195.56C289.811 196.34 289.521 197.07 289.721 197.23Z" fill="#263238"/>
<path d="M321.911 204.35C321.95 205.132 322.292 205.867 322.866 206.4C323.439 206.932 324.198 207.219 324.981 207.2C325.364 207.208 325.746 207.139 326.102 206.997C326.459 206.855 326.783 206.643 327.056 206.374C327.329 206.104 327.546 205.783 327.692 205.429C327.839 205.074 327.913 204.694 327.911 204.31C327.872 203.523 327.525 202.783 326.945 202.25C326.365 201.716 325.598 201.433 324.811 201.46C324.43 201.456 324.051 201.528 323.698 201.672C323.345 201.815 323.025 202.028 322.755 202.297C322.485 202.566 322.271 202.886 322.126 203.239C321.981 203.591 321.908 203.969 321.911 204.35Z" fill="#263238"/>
<path d="M321.471 195.93C321.861 196.29 324.031 194.48 327.261 194.29C330.491 194.1 332.951 195.58 333.261 195.16C333.421 194.97 333.011 194.29 331.931 193.6C330.473 192.718 328.78 192.306 327.081 192.42C325.404 192.521 323.802 193.147 322.501 194.21C321.571 195.03 321.271 195.76 321.471 195.93Z" fill="#263238"/>
<path d="M311.201 220.56C311.201 220.37 309.201 220.15 305.901 219.93C305.071 219.93 304.281 219.77 304.111 219.22C303.99 218.372 304.129 217.507 304.511 216.74C305.171 214.74 305.851 212.57 306.571 210.33C309.421 201.19 311.421 193.7 311.051 193.59C310.681 193.48 308.051 200.79 305.231 209.92L303.281 216.38C302.819 217.401 302.737 218.554 303.051 219.63C303.186 219.915 303.386 220.166 303.634 220.362C303.882 220.558 304.172 220.694 304.481 220.76C304.944 220.857 305.418 220.894 305.891 220.87C309.171 220.85 311.201 220.74 311.201 220.56Z" fill="#263238"/>
<path d="M311.271 258.87C322.287 258.371 332.949 254.826 342.071 248.63C342.071 248.63 335.151 265.38 311.631 264.63L311.271 258.87Z" fill="#EB996E"/>
<path d="M313.031 228.25C313.597 227.439 314.361 226.787 315.25 226.355C316.139 225.922 317.124 225.725 318.111 225.78C318.826 225.798 319.53 225.961 320.18 226.26C320.83 226.559 321.412 226.988 321.891 227.52C322.355 228.031 322.651 228.673 322.739 229.358C322.826 230.043 322.701 230.738 322.381 231.35C321.898 231.96 321.245 232.413 320.504 232.65C319.763 232.887 318.968 232.897 318.221 232.68C316.663 232.233 315.211 231.478 313.951 230.46C313.563 230.227 313.223 229.921 312.951 229.56C312.821 229.389 312.746 229.184 312.733 228.971C312.721 228.757 312.772 228.544 312.881 228.36" fill="#EB996E"/>
<path d="M320.811 222.22C320.281 222.22 320.481 225.72 317.641 228.38C314.801 231.04 311.041 230.89 311.041 231.38C311.041 231.6 311.911 232.01 313.491 231.96C315.544 231.867 317.499 231.053 319.011 229.66C320.461 228.321 321.332 226.47 321.441 224.5C321.511 223.03 321.061 222.18 320.811 222.22Z" fill="#263238"/>
<path d="M319.921 183.7C320.291 184.56 323.491 183.95 327.301 184.18C331.111 184.41 334.241 185.25 334.691 184.43C334.891 184.04 334.311 183.25 333.031 182.43C331.32 181.488 329.416 180.947 327.465 180.85C325.514 180.753 323.567 181.102 321.771 181.87C320.421 182.56 319.811 183.29 319.921 183.7Z" fill="#263238"/>
<path d="M290.341 187.82C290.951 188.52 293.131 187.63 295.801 187.43C298.471 187.23 300.801 187.63 301.241 186.83C301.451 186.44 301.051 185.73 300.011 185.1C298.634 184.344 297.063 184.017 295.498 184.159C293.934 184.302 292.448 184.908 291.231 185.9C290.331 186.71 290.071 187.48 290.341 187.82Z" fill="#263238"/>
<path d="M307.741 150.33L309.561 147.67C323.159 148.375 336.599 150.925 349.511 155.25C354.671 156.98 359.911 159.11 363.611 163.1C368.711 168.58 369.961 176.5 370.961 183.92C374.781 212.15 378.301 241.26 371.061 268.82C368.701 265.5 364.401 264.21 360.361 263.68C356.321 263.15 352.111 263.17 348.361 261.54C346.324 260.607 344.505 259.259 343.02 257.582C341.536 255.904 340.419 253.935 339.741 251.8C338.405 247.492 338.628 242.851 340.371 238.69C342.261 234.06 345.851 229.48 344.601 224.69C343.291 219.62 337.221 217.05 335.521 212.1C332.591 203.54 344.321 194.96 341.311 186.43C340.191 183.28 337.251 181.12 334.171 179.82C331.091 178.52 327.771 177.89 324.661 176.68C319.489 174.538 315.097 170.865 312.073 166.156C309.048 161.446 307.537 155.924 307.741 150.33Z" fill="#263238"/>
<path d="M376.921 164.28C362.381 143.9 352.531 141.43 338.851 140.67L357.851 183.27C360.701 190.13 364.621 198.45 365.231 205.84C365.951 214.61 362.911 221.95 358.841 229.74C353.961 239.1 348.601 248.02 340.211 254.42C331.821 260.82 313.141 268.87 303.441 264.72L316.971 272.29L349.291 272.41L386.941 272.56C386.941 272.56 391.341 268.7 395.211 258.74C404.921 233.79 393.141 187.01 376.921 164.28Z" fill="#6366F1"/>
<path d="M403.731 297.02C403.731 297.02 395.631 280.4 385.061 271.26C374.491 262.12 368.001 262.21 352.921 263.49C337.841 264.77 316.741 267.15 311.741 265.88L311.271 258.88C308.791 258.63 298.621 253.68 296.641 250.69C292.861 254.56 291.211 258.69 292.071 263.08L289.601 264.01C285.957 265.343 282.932 267.971 281.102 271.393C279.272 274.814 278.766 278.789 279.681 282.56C280.621 286.16 282.891 288.37 287.451 289.16C305.551 292.29 353.941 279.21 368.511 279.16C383.081 279.11 403.731 297.02 403.731 297.02Z" fill="#6366F1"/>
<path d="M285.811 288.97C286.235 288.958 286.66 288.981 287.081 289.04C287.901 289.12 289.081 289.25 290.671 289.36C295.082 289.704 299.51 289.777 303.931 289.58C310.479 289.243 316.989 288.36 323.391 286.94C327.011 286.15 330.781 285.19 334.651 284.07L346.591 280.38C354.781 277.89 362.991 276.19 370.501 276.93C377.117 277.535 383.521 279.583 389.261 282.93C393.114 285.188 396.598 288.025 399.591 291.34C400.404 292.236 401.165 293.177 401.871 294.16C402.132 294.475 402.369 294.809 402.581 295.16C402.265 294.88 401.983 294.565 401.741 294.22C401.231 293.57 400.421 292.66 399.351 291.52C391.719 283.527 381.439 278.586 370.431 277.62C363.071 276.94 354.991 278.62 346.831 281.1C342.741 282.33 338.771 283.64 334.881 284.77C330.991 285.9 327.201 286.84 323.551 287.61C317.103 289.009 310.544 289.839 303.951 290.09C299.508 290.239 295.06 290.075 290.641 289.6C289.081 289.44 287.871 289.26 287.061 289.13C286.64 289.113 286.222 289.059 285.811 288.97Z" fill="#263238"/>
<path d="M404.601 291.56C386.341 267.82 351.331 258.75 323.831 270.63L294.831 276.78C287.181 278.1 274.911 280.59 274.331 287.68C273.801 295.189 275.436 302.692 279.041 309.3C285.781 321.04 282.121 336.77 288.861 348.51C292.041 354.06 295.291 359.69 299.931 364.1C304.571 368.51 310.871 371.6 317.231 370.91C324.311 370.15 330.111 364.98 334.611 359.46C344.301 347.57 350.351 333.13 359.421 320.77C368.491 308.41 379.191 299.31 398.251 298.14C401.711 297.92 411.581 302.53 411.581 302.53C411.861 301.13 405.471 292.67 404.601 291.56Z" fill="#6366F1"/>
<g opacity="0.3">
<path d="M365.571 277.44C352.961 277.44 340.571 283.5 328.351 286.2C279.191 297.02 279.191 278.48 279.191 278.48C277.651 287.19 285.831 291.19 294.441 293.19C310.881 296.99 328.441 299.03 340.301 295.24C349.861 292.24 359.841 290.01 369.491 287.24C379.141 284.47 393.041 285.53 400.351 292.39C393.811 281.64 378.181 277.41 365.571 277.44Z" fill="black"/>
</g>
<g opacity="0.3">
<path d="M301.681 276.11C302.268 277.398 303.126 278.544 304.196 279.47C305.266 280.397 306.522 281.082 307.881 281.48C310.604 282.265 313.454 282.509 316.271 282.2C326.551 281.5 336.431 278.07 346.161 274.67C338.381 274.4 330.851 277.11 323.221 278.67C315.591 280.23 306.991 280.33 300.791 275.67" fill="black"/>
</g>
<path d="M407.071 299.17C407.071 299.17 406.981 299.1 406.841 298.95L406.231 298.25C405.701 297.62 404.891 296.74 403.821 295.62C400.808 292.452 397.167 289.949 393.131 288.27C390.314 287.207 387.355 286.567 384.351 286.37C380.906 286.091 377.441 286.201 374.021 286.7C366.761 287.7 359.091 290.25 350.951 292.57C342.811 294.89 335.041 297.31 327.651 297.7C321.135 297.981 314.61 297.515 308.201 296.31C302.741 295.31 298.391 294.15 295.381 293.4L291.921 292.52L291.031 292.28L290.721 292.18C290.827 292.164 290.935 292.164 291.041 292.18L291.951 292.37L295.431 293.16C298.431 293.85 302.811 294.94 308.271 295.9C314.652 297.052 321.143 297.482 327.621 297.18C334.931 296.77 342.711 294.46 350.811 292.03C358.911 289.6 366.631 287.15 373.951 286.18C377.409 285.692 380.911 285.598 384.391 285.9C388.122 286.114 391.773 287.068 395.133 288.706C398.493 290.344 401.493 292.633 403.961 295.44C405.021 296.59 405.811 297.49 406.311 298.14L406.881 298.87L407.071 299.17Z" fill="black"/>
<path d="M388.711 274.71C388.635 274.66 388.565 274.604 388.501 274.54L387.921 274.01C387.431 273.53 386.661 272.86 385.661 272.01C382.781 269.682 379.623 267.721 376.261 266.17C371.27 263.883 365.964 262.36 360.521 261.65C353.849 260.822 347.099 260.838 340.431 261.7C333.757 262.582 327.134 263.817 320.591 265.4C317.7 266.079 314.722 266.315 311.761 266.1C309.156 265.905 306.655 264.999 304.531 263.48C302.826 262.185 301.369 260.593 300.231 258.78C299.372 257.427 298.626 256.006 298.001 254.53C297.491 253.32 297.151 252.35 296.931 251.69L296.701 250.94C296.668 250.857 296.647 250.769 296.641 250.68C296.641 250.68 296.691 250.76 296.751 250.92C296.811 251.08 296.921 251.36 297.031 251.66C297.281 252.3 297.651 253.25 298.191 254.45C298.844 255.898 299.609 257.292 300.481 258.62C301.62 260.383 303.066 261.927 304.751 263.18C306.834 264.635 309.275 265.496 311.811 265.67C314.725 265.859 317.651 265.61 320.491 264.93C327.043 263.314 333.68 262.066 340.371 261.19C347.083 260.324 353.878 260.324 360.591 261.19C366.074 261.934 371.412 263.508 376.421 265.86C379.793 267.441 382.944 269.458 385.791 271.86C386.562 272.515 387.3 273.209 388.001 273.94L388.541 274.5C388.661 274.64 388.721 274.7 388.711 274.71Z" fill="black"/>
<path d="M382.811 274.22H382.561L381.821 274.1L378.971 273.63C375.478 273.092 371.96 272.735 368.431 272.56C363.192 272.302 357.942 272.469 352.731 273.06C346.355 273.916 340.037 275.155 333.811 276.77C327.171 278.37 320.711 279.77 314.721 279.68C311.893 279.698 309.075 279.362 306.331 278.68C303.938 278.003 301.725 276.805 299.851 275.17C297.162 272.82 294.978 269.949 293.431 266.73C292.842 265.565 292.376 264.341 292.041 263.08C292.088 263.151 292.125 263.228 292.151 263.31L292.421 264.01C292.671 264.63 293.051 265.52 293.611 266.63C295.209 269.781 297.411 272.587 300.091 274.89C301.936 276.463 304.104 277.613 306.441 278.26C309.151 278.919 311.932 279.238 314.721 279.21C320.641 279.21 327.051 277.88 333.721 276.27C339.971 274.642 346.316 273.406 352.721 272.57C357.958 272.006 363.232 271.876 368.491 272.18C372.031 272.386 375.557 272.796 379.051 273.41C380.291 273.64 381.241 273.83 381.891 273.98L382.621 274.15C382.741 274.18 382.811 274.21 382.811 274.22Z" fill="black"/>
<path d="M383.731 229.34C383.641 229.908 383.514 230.469 383.351 231.02C383.195 231.677 383.001 232.325 382.771 232.96C382.511 233.71 382.261 234.57 381.861 235.48C381.461 236.39 381.071 237.41 380.541 238.48C380.011 239.55 379.421 240.62 378.771 241.77C375.851 246.685 372.051 251.021 367.561 254.56C366.511 255.36 365.561 256.13 364.561 256.75C363.561 257.37 362.661 257.96 361.791 258.45C360.921 258.94 360.121 259.34 359.421 259.69C358.821 260.004 358.204 260.281 357.571 260.52C357.05 260.76 356.512 260.96 355.961 261.12C356.449 260.819 356.96 260.558 357.491 260.34C357.991 260.11 358.601 259.82 359.291 259.43C359.981 259.04 360.781 258.67 361.611 258.13C362.441 257.59 363.381 257.07 364.321 256.39C365.261 255.71 366.251 254.98 367.321 254.19C371.725 250.636 375.481 246.346 378.421 241.51C379.071 240.38 379.711 239.32 380.211 238.28C380.711 237.24 381.211 236.28 381.581 235.36C381.951 234.44 382.271 233.62 382.581 232.89C382.891 232.16 383.071 231.51 383.231 230.99C383.35 230.427 383.517 229.875 383.731 229.34Z" fill="black"/>
<path d="M382.221 288.95C381.949 288.95 381.678 288.926 381.411 288.88L380.411 288.75C380.031 288.7 379.581 288.75 379.091 288.68C376.263 288.612 373.445 289.049 370.771 289.97C368.926 290.603 367.131 291.372 365.401 292.27C363.418 293.315 361.492 294.463 359.631 295.71C355.691 298.34 351.571 301.56 347.151 304.81L324.591 321.56L317.701 326.56L315.811 327.86C315.6 328.031 315.372 328.178 315.131 328.3C315.321 328.112 315.525 327.939 315.741 327.78L317.571 326.36L324.361 321.21L346.861 304.39C351.281 301.15 355.401 297.93 359.391 295.31C361.271 294.063 363.217 292.918 365.221 291.88C366.982 290.993 368.807 290.237 370.681 289.62C373.399 288.72 376.261 288.333 379.121 288.48C379.621 288.48 380.071 288.53 380.451 288.59L381.451 288.77C381.712 288.807 381.97 288.867 382.221 288.95Z" fill="black"/>
<path d="M414.491 319.61C414.297 319.156 414.149 318.684 414.051 318.2C413.811 317.29 413.471 315.96 412.991 314.34C412.451 312.44 411.765 310.585 410.941 308.79C409.938 306.606 408.568 304.61 406.891 302.89C405.222 301.163 403.134 299.899 400.831 299.22C398.935 298.712 396.966 298.54 395.011 298.71C393.201 298.913 391.405 299.22 389.631 299.63C389.738 299.558 389.856 299.504 389.981 299.47C390.221 299.38 390.571 299.26 390.981 299.13C392.286 298.743 393.625 298.481 394.981 298.35C396.989 298.116 399.023 298.255 400.981 298.76C403.375 299.438 405.548 300.735 407.281 302.52C409.003 304.283 410.398 306.339 411.401 308.59C412.22 310.416 412.889 312.305 413.401 314.24C413.831 315.88 414.121 317.24 414.301 318.16C414.406 318.637 414.469 319.122 414.491 319.61Z" fill="black"/>
<path d="M396.75 132.973C416.413 132.059 431.611 115.379 430.698 95.717C429.785 76.0548 413.105 60.8559 393.442 61.7694C373.78 62.6829 358.581 79.3628 359.495 99.0251C360.408 118.687 377.088 133.886 396.75 132.973Z" fill="white"/>
<path d="M375.271 138.56C375.6 138.467 375.934 138.39 376.271 138.33C377.233 138.211 378.209 138.396 379.061 138.86C379.647 139.165 380.159 139.595 380.561 140.12C381.006 140.73 381.267 141.456 381.311 142.21C381.404 143.077 381.23 143.953 380.811 144.718C380.393 145.484 379.75 146.102 378.969 146.491C378.188 146.88 377.306 147.02 376.443 146.893C375.58 146.766 374.776 146.378 374.141 145.78C373.568 145.291 373.145 144.649 372.921 143.93C372.736 143.28 372.698 142.597 372.811 141.93C372.958 140.97 373.398 140.08 374.071 139.38C374.551 138.89 374.901 138.72 374.881 138.69C374.792 138.717 374.707 138.758 374.631 138.81C374.529 138.862 374.432 138.922 374.341 138.99C374.215 139.083 374.095 139.183 373.981 139.29C373.364 139.88 372.916 140.624 372.684 141.445C372.452 142.266 372.444 143.135 372.661 143.96C372.882 144.738 373.327 145.433 373.941 145.96C374.609 146.554 375.43 146.949 376.311 147.1C377.259 147.3 378.247 147.174 379.115 146.742C379.982 146.31 380.679 145.597 381.091 144.72C381.497 143.924 381.677 143.031 381.611 142.14C381.556 141.332 381.268 140.557 380.781 139.91C380.354 139.353 379.803 138.904 379.171 138.6C378.272 138.136 377.247 137.978 376.251 138.15C376.098 138.172 375.947 138.209 375.801 138.26C375.687 138.289 375.576 138.329 375.471 138.38C375.351 138.49 375.261 138.56 375.271 138.56Z" fill="#263238"/>
<path d="M365.421 117.65L365.131 117.14L364.251 115.68C364.061 115.35 363.841 114.99 363.601 114.6C363.361 114.21 363.181 113.73 362.941 113.23C362.701 112.73 362.451 112.23 362.181 111.63C362.033 111.34 361.91 111.039 361.811 110.73C361.701 110.41 361.581 110.09 361.461 109.73C360.25 106.486 359.538 103.077 359.351 99.62C359.074 95.041 359.678 90.4514 361.131 86.1L361.761 84.28C362.011 83.67 362.301 83.08 362.571 82.47C362.701 82.17 362.841 81.87 362.981 81.56C363.108 81.2473 363.262 80.9462 363.441 80.66L364.441 78.87C364.611 78.57 364.781 78.27 364.961 77.97L365.581 77.11L366.831 75.37C367.261 74.8 367.771 74.27 368.251 73.71L368.981 72.88C369.101 72.75 369.221 72.6 369.351 72.47L369.761 72.09C370.834 71.0122 371.98 70.0098 373.191 69.09C373.811 68.64 374.411 68.09 375.071 67.7L377.071 66.47C377.411 66.27 377.741 66.04 378.071 65.86L379.161 65.34C379.891 65 380.611 64.62 381.361 64.34C382.903 63.7265 384.483 63.2122 386.091 62.8L387.311 62.49L387.931 62.34L388.561 62.25L391.091 61.87C391.951 61.78 392.811 61.76 393.681 61.71C394.111 61.71 394.551 61.64 394.991 61.71L396.301 61.77C398.074 61.8349 399.842 62.0187 401.591 62.32L404.221 62.95L404.881 63.11C405.101 63.17 405.311 63.25 405.531 63.32L406.821 63.77L408.121 64.21L409.381 64.77L410.641 65.35L411.271 65.63C411.481 65.74 411.671 65.86 411.881 65.98L414.301 67.37L416.601 69.01C422.773 73.6353 427.267 80.1483 429.401 87.56C429.641 88.47 429.871 89.39 430.101 90.29L430.521 93.06L430.621 93.75V94.44L430.691 95.82L430.761 97.2L430.701 98.57L430.641 99.94V100.62L430.551 101.29C430.421 102.19 430.301 103.08 430.181 103.97C429.826 105.713 429.355 107.43 428.771 109.11L428.351 110.35C428.211 110.77 428.001 111.15 427.831 111.55C427.461 112.34 427.141 113.14 426.741 113.9C426.341 114.66 425.891 115.39 425.471 116.13L425.151 116.68C425.031 116.86 424.901 117.03 424.781 117.2L424.051 118.2C423.085 119.547 422.033 120.83 420.901 122.04C420.331 122.63 419.721 123.16 419.141 123.72L418.251 124.54C417.961 124.81 417.621 125.04 417.311 125.28L415.431 126.72C414.791 127.17 414.101 127.55 413.431 127.96C412.148 128.759 410.812 129.468 409.431 130.08L408.931 130.32L408.411 130.52L407.411 130.89C406.711 131.13 406.041 131.42 405.351 131.62L403.271 132.15L402.271 132.41L401.271 132.57L399.271 132.88C398.94 132.938 398.606 132.971 398.271 132.98H397.271C396.611 132.98 395.951 133.07 395.271 133.08L393.341 133C388.759 132.775 384.263 131.668 380.101 129.74C379.641 129.53 379.181 129.34 378.741 129.13L377.501 128.41L376.301 127.73C376.101 127.61 375.901 127.51 375.721 127.39L375.191 127.01L373.191 125.57C372.561 125.09 372.021 124.57 371.471 124.11L370.691 123.43C370.44 123.222 370.203 122.998 369.981 122.76L368.631 121.56C368.261 121.16 367.901 120.8 367.631 120.45L366.861 119.45L365.861 118.1C365.631 117.8 365.501 117.65 365.501 117.65L365.841 118.12C366.071 118.44 366.411 118.89 366.841 119.49L367.591 120.49C367.891 120.85 368.251 121.21 368.591 121.61L369.791 122.92C370.01 123.164 370.247 123.391 370.501 123.6L371.281 124.29C371.821 124.75 372.361 125.29 372.991 125.76L374.991 127.22L375.521 127.6C375.711 127.73 375.911 127.83 376.101 127.95L377.301 128.64L378.551 129.37L379.911 129.99C384.091 131.947 388.611 133.074 393.221 133.31L395.161 133.4C395.811 133.4 396.481 133.34 397.161 133.31L398.161 133.25C398.496 133.249 398.831 133.219 399.161 133.16L401.211 132.85L402.211 132.69L403.211 132.43L405.311 131.9C406.001 131.7 406.681 131.42 407.381 131.18L408.431 130.8C408.601 130.73 408.781 130.68 408.951 130.6L409.461 130.36C410.864 129.744 412.224 129.032 413.531 128.23C414.191 127.82 414.881 127.44 415.531 126.99L417.431 125.54C417.751 125.29 418.081 125.07 418.431 124.8L419.321 123.97C419.901 123.41 420.531 122.87 421.101 122.28C422.243 121.06 423.305 119.767 424.281 118.41C424.521 118.06 424.771 117.72 425.021 117.41C425.141 117.24 425.271 117.07 425.391 116.89L425.711 116.33L427.001 114.09C427.401 113.32 427.731 112.51 428.101 111.72C428.271 111.31 428.491 110.92 428.631 110.51L429.051 109.25C429.643 107.558 430.118 105.827 430.471 104.07C430.601 103.18 430.731 102.27 430.851 101.37L430.951 100.69V100L431.011 98.63L431.071 97.24L431.001 95.85L430.921 94.46V93.75L430.811 93.06L430.391 90.27C430.161 89.35 429.931 88.43 429.691 87.51C427.581 80.0111 423.07 73.4108 416.851 68.72L414.531 67.06L412.081 65.66C411.881 65.54 411.681 65.42 411.471 65.31L410.831 65.02L409.561 64.44L408.291 63.88L406.981 63.43L405.671 62.98L405.021 62.76L404.351 62.61C403.471 62.39 402.581 62.18 401.701 61.98C399.936 61.6704 398.151 61.4833 396.361 61.42L395.041 61.36C394.601 61.36 394.161 61.36 393.721 61.36C392.841 61.42 391.971 61.43 391.111 61.52L388.551 61.91L387.921 62.01C387.711 62.01 387.501 62.11 387.301 62.16L386.061 62.48C384.441 62.8895 382.851 63.4073 381.301 64.03C380.541 64.35 379.811 64.74 379.071 65.08L377.981 65.61C377.621 65.79 377.291 66.02 376.981 66.23L374.981 67.47C374.321 67.91 373.711 68.42 373.091 68.88C371.87 69.7999 370.714 70.8022 369.631 71.88L369.221 72.27C369.091 72.4 368.971 72.55 368.851 72.69C368.731 72.83 368.361 73.25 368.111 73.52C367.631 74.09 367.111 74.62 366.691 75.19L365.431 76.95L364.811 77.82C364.631 78.12 364.461 78.43 364.291 78.73L363.291 80.53C363.117 80.821 362.966 81.1252 362.841 81.44L362.421 82.36C362.151 82.97 361.861 83.57 361.621 84.18C361.381 84.79 361.201 85.41 360.991 86.02C359.54 90.3989 358.949 95.0169 359.251 99.62C359.45 103.094 360.182 106.518 361.421 109.77L361.781 110.77C361.88 111.079 362.003 111.38 362.151 111.67L362.931 113.27C363.181 113.76 363.381 114.22 363.611 114.63L364.271 115.7L365.181 117.15C365.301 117.48 365.421 117.65 365.421 117.65Z" fill="#263238"/>
<path d="M377.101 98.27L382.381 92.99L392.561 102.04L412.541 82.81L417.441 88.09L391.811 112.22L377.101 98.27Z" fill="#4338CA"/>
</svg>
